<?xml version="1.0" standalone="no"?>
<!DOCTYPE svg PUBLIC "-//W3C//DTD SVG 20010904//EN"
 "http://www.w3.org/TR/2001/REC-SVG-20010904/DTD/svg10.dtd">
<svg version="1.0" xmlns="http://www.w3.org/2000/svg"
 viewBox="0 0 2600.000000 2600.000000"
 preserveAspectRatio="xMidYMid meet">
<metadata>
Created by potrace 1.15, written by Peter Selinger 2001-2017
</metadata>
<g transform="translate(0.000000,2600.000000) scale(0.100000,-0.100000)"
fill="#000000" stroke="none">
<path d="M6120 21175 c-134 -89 -393 -232 -1365 -749 -660 -352 -1255 -669
-1322 -705 l-123 -65 0 -6408 0 -6408 -290 0 -290 0 0 -375 0 -375 1037 0
1036 0 -7 283 c-4 155 -11 417 -16 582 -13 403 -12 1238 0 1404 6 74 19 190
30 258 24 146 55 414 70 604 l11 136 -40 74 c-62 114 -84 223 -85 404 -1 212
35 363 115 490 29 46 40 115 18 115 -17 0 -494 -244 -632 -323 -169 -96 -236
-145 -351 -256 l-99 -96 6 105 c12 196 56 300 177 420 116 115 316 210 524
251 97 19 60 27 -131 28 -181 1 -355 -13 -553 -44 -80 -12 -146 -21 -148 -20
-2 2 43 49 100 106 192 192 377 270 607 256 126 -8 232 -37 359 -97 101 -48
102 -49 82 -20 -32 45 -156 156 -228 203 -127 83 -218 121 -441 181 -118 32
-240 81 -229 91 13 14 254 66 346 76 288 30 519 -70 650 -281 18 -30 22 -32
22 -13 0 35 -49 182 -87 258 -41 82 -94 159 -187 270 -37 44 -62 81 -57 83 17
6 179 -64 255 -110 190 -112 286 -291 258 -481 -6 -39 -10 -73 -8 -75 2 -1 20
19 39 46 110 150 302 266 506 307 67 14 119 16 250 13 91 -3 174 -9 184 -13
16 -7 17 21 17 505 l0 512 23 -5 c12 -3 123 -24 247 -46 1023 -181 2555 -351
4585 -511 334 -26 940 -70 965 -70 19 0 20 -8 20 -190 l0 -190 -27 7 c-16 4
-100 7 -188 7 -193 -1 -268 -18 -425 -95 -94 -46 -116 -63 -206 -153 l-100
-101 4 92 c3 74 0 105 -17 160 -48 158 -208 294 -440 377 -41 15 -75 25 -77
23 -2 -1 39 -55 90 -119 150 -186 210 -302 251 -483 6 -27 3 -25 -24 16 -40
59 -133 148 -194 183 -26 16 -80 40 -120 54 -70 26 -79 26 -312 27 -221 0
-246 -2 -310 -22 -128 -41 -254 -134 -326 -242 l-29 -45 6 35 c13 70 63 201
105 275 24 42 88 131 141 197 53 67 96 123 94 124 -6 6 -149 -48 -211 -80 -81
-40 -130 -75 -191 -135 -102 -101 -139 -200 -132 -353 l5 -98 -27 37 c-31 43
-132 140 -172 166 -16 10 -28 21 -28 25 0 4 41 27 90 51 68 33 86 46 72 51 -9
4 -73 15 -140 24 -92 13 -148 16 -220 10 -53 -4 -116 -7 -139 -6 -239 6 -329
4 -403 -8 -127 -20 -128 -23 -23 -73 51 -24 92 -45 92 -48 0 -3 -27 -25 -60
-49 -33 -24 -86 -74 -117 -112 -31 -37 -58 -67 -58 -66 -1 1 3 30 9 65 30 178
-58 352 -241 472 -74 49 -278 137 -290 126 -3 -3 14 -30 38 -58 25 -29 61 -73
81 -98 97 -117 193 -308 215 -426 l7 -39 -47 62 c-41 54 -86 95 -167 153 -21
16 -21 16 24 40 29 15 42 27 34 31 -29 16 -274 41 -356 36 -106 -7 -338 -49
-446 -81 -79 -24 -80 -24 -50 -36 l30 -12 -30 -21 c-16 -12 -70 -62 -120 -112
l-90 -90 0 115 c0 112 -1 117 -37 191 -45 91 -140 187 -245 245 -69 39 -242
109 -249 101 -3 -2 30 -47 72 -98 96 -118 142 -185 187 -274 37 -74 81 -207
75 -225 -2 -6 -20 12 -41 40 -65 87 -197 172 -311 201 -50 12 -21 24 -441
-182 -162 -79 -415 -228 -459 -270 -5 -4 40 12 100 36 291 117 542 103 715
-40 44 -37 138 -144 139 -157 0 -5 -116 -8 -257 -8 -264 0 -424 -13 -608 -48
l-90 -18 90 -17 c252 -50 408 -171 476 -367 18 -53 23 -87 23 -185 0 -128 -16
-226 -39 -245 -28 -24 -59 -3 -92 62 -98 189 -354 427 -585 544 l-50 25 25
-33 c168 -223 168 -715 1 -965 -43 -64 -43 -65 -54 -191 -17 -209 -40 -407
-66 -585 -14 -93 -29 -225 -34 -295 -12 -163 -12 -972 0 -1342 5 -157 12 -423
16 -592 l7 -308 694 0 693 0 0 -280 0 -280 -1865 0 -1865 0 0 -375 0 -375
10550 0 10550 0 0 375 0 375 -5380 0 -5380 0 0 -30 0 -30 -135 0 -135 0 0 30
0 30 -920 0 -920 0 0 280 0 280 922 0 921 0 -7 252 c-4 139 -11 390 -16 558
-12 399 -12 1231 0 1390 5 69 21 199 35 290 28 190 49 376 65 576 l12 141 -26
37 c-105 155 -134 481 -66 734 20 73 81 205 100 217 11 7 14 95 3 95 -3 0
-126 -61 -272 -136 -290 -148 -480 -257 -587 -337 l-69 -52 -3 -483 -2 -483
-173 6 c-94 3 -311 8 -481 11 l-308 6 7 72 c4 39 12 136 19 216 12 144 12 145
48 192 44 58 90 174 113 288 18 88 25 323 11 368 -7 21 -5 22 46 22 29 0 104
-3 166 -7 l114 -6 56 -73 c32 -40 75 -106 97 -146 38 -69 43 -73 75 -73 32 0
36 4 48 40 8 22 16 88 19 148 6 103 7 107 28 107 17 0 34 17 65 65 105 161
297 276 568 341 59 14 109 28 112 31 3 3 -123 3 -280 0 -245 -4 -308 -9 -449
-32 -90 -14 -166 -24 -169 -20 -3 3 35 46 85 95 l91 90 -146 2 c-128 1 -137 2
-72 8 41 4 113 8 159 9 75 1 89 4 130 30 135 87 250 121 407 121 141 0 269
-31 406 -98 54 -26 98 -45 98 -41 0 4 -46 51 -103 105 -162 156 -291 222 -581
301 -72 20 -148 44 -168 54 l-38 19 0 -130 c0 -71 -3 -130 -6 -130 -4 0 -39
12 -78 27 -62 23 -86 27 -191 27 -132 1 -227 -19 -357 -74 -38 -15 -66 -24
-63 -19 23 36 638 369 683 369 7 0 12 -9 12 -20 0 -11 1 -20 3 -20 1 0 35 9
74 20 348 96 621 54 799 -124 39 -39 81 -89 92 -111 28 -53 29 -23 2 73 -41
148 -110 269 -243 428 -43 51 -77 95 -77 98 0 3 33 -6 73 -20 324 -117 486
-324 449 -575 -6 -40 -9 -75 -8 -77 2 -2 13 13 25 32 12 19 60 71 107 115 145
138 333 215 554 228 104 6 365 -19 383 -36 4 -4 -39 -29 -95 -56 -323 -152
-399 -189 -472 -231 -97 -56 -278 -175 -273 -180 2 -2 39 12 83 31 137 59 223
78 364 79 106 1 135 -2 192 -22 115 -40 199 -104 288 -221 l34 -44 -200 6
c-110 3 -263 1 -339 -4 -137 -9 -366 -42 -409 -59 -19 -8 -17 -9 10 -9 52 -1
185 -40 259 -75 142 -67 234 -170 278 -310 18 -59 22 -91 20 -196 -1 -69 -7
-147 -15 -175 -12 -48 -14 -50 -48 -50 -33 0 -37 4 -74 73 -82 152 -234 309
-416 432 -86 58 -191 120 -203 120 -4 0 8 -20 27 -45 37 -48 68 -122 94 -224
12 -49 16 -110 16 -236 -1 -150 -4 -181 -26 -266 -27 -100 -61 -176 -109 -244
-26 -38 -29 -51 -44 -225 -18 -213 -37 -380 -66 -565 -11 -71 -24 -200 -30
-285 -14 -187 -7 -1136 12 -1737 l13 -413 5378 0 5378 0 0 375 0 375 -260 0
-260 0 0 6409 0 6409 -1317 702 c-1021 544 -1355 727 -1484 811 -91 60 -169
109 -173 109 -4 0 -56 -38 -114 -84 -1150 -905 -2606 -1558 -4207 -1886 -397
-81 -868 -153 -1210 -183 l-140 -12 -5 210 -5 210 -107 3 -107 3 -3 374 -3
375 -28 27 c-27 28 -29 28 -176 31 l-148 4 -12 54 c-25 112 -130 273 -202 312
-22 12 -24 19 -24 85 0 93 -33 167 -107 240 -107 105 -252 157 -443 157 -172
0 -288 -35 -401 -121 -97 -74 -146 -168 -146 -280 l0 -67 -42 -32 c-91 -68
-160 -184 -190 -322 l-6 -28 -131 0 c-89 0 -140 -4 -164 -14 -64 -27 -65 -34
-65 -436 l0 -360 -90 0 -90 0 0 -215 0 -215 -22 4 c-13 3 -59 8 -103 11 -152
12 -431 46 -660 81 -1796 276 -3459 962 -4736 1955 -79 61 -148 114 -154 118
-5 4 -84 -43 -175 -104z m260 -1347 c1254 -824 2706 -1393 4300 -1683 364 -67
1058 -155 1214 -155 83 0 76 44 76 -480 l0 -467 -87 14 c-556 87 -1308 243
-1971 408 -1310 327 -2531 736 -3707 1243 l-70 30 -3 627 -2 627 22 -14 c13
-9 115 -76 228 -150z m14103 -1089 c-13 -12 -404 -176 -703 -294 -1291 -511
-2728 -937 -4118 -1219 -355 -73 -932 -176 -981 -176 l-21 0 0 465 0 465 23 4
c12 2 90 10 172 16 500 38 1104 134 1676 266 1401 323 2707 880 3814 1628
l140 94 3 -621 c1 -341 -1 -624 -5 -628z m-14146 -700 c1620 -669 3571 -1227
5293 -1513 151 -25 290 -48 308 -51 l32 -6 0 -539 c0 -455 -2 -540 -14 -540
-25 0 -367 48 -606 85 -1631 253 -3467 731 -5080 1323 l-135 50 -3 636 c-1
350 0 636 3 636 3 0 94 -36 202 -81z m14151 -555 l-3 -637 -215 -79 c-264 -97
-940 -324 -1230 -413 -1234 -380 -2536 -685 -3730 -874 -224 -35 -616 -91
-641 -91 -5 0 -9 234 -9 540 l0 539 33 6 c17 3 140 23 272 45 1685 282 3502
791 5090 1426 143 57 296 119 340 138 44 19 83 35 88 35 4 1 6 -285 5 -635z
m-14088 -1334 c1280 -454 2730 -844 4080 -1099 464 -87 1155 -197 1428 -227
l62 -7 0 -513 0 -513 -27 4 c-16 3 -210 30 -433 61 -1784 242 -3436 507 -4520
724 -307 61 -699 147 -817 179 l-43 12 0 734 c0 404 4 735 8 735 4 0 122 -41
262 -90z m14088 -647 l-3 -738 -205 -48 c-1064 -246 -3088 -581 -5447 -900
l-173 -23 0 512 0 512 98 11 c972 120 2265 379 3402 682 677 181 1602 469
2145 668 88 32 166 59 173 60 10 1 12 -149 10 -736z m-13908 -1417 c1130 -241
3217 -578 5140 -831 107 -14 207 -28 223 -31 l27 -6 0 -479 0 -479 -30 0 c-17
0 -214 14 -438 30 -2054 153 -3726 329 -4812 506 -202 33 -504 89 -542 100
-17 5 -18 45 -18 649 l0 643 73 -18 c39 -11 209 -48 377 -84z m13910 -545 c0
-601 -1 -640 -17 -645 -62 -18 -554 -104 -863 -150 -911 -137 -2253 -279
-3775 -401 -353 -28 -1126 -85 -1156 -85 -19 0 -19 12 -19 480 l0 480 23 4
c12 3 58 10 102 15 1998 258 4517 671 5495 900 91 21 175 39 188 40 l22 1 0
-639z m-2 -1998 c0 -428 -3 -763 -5 -745 -3 25 -9 32 -26 32 -12 0 -249 -13
-527 -30 -1713 -101 -3726 -169 -5002 -170 l-268 0 0 530 c0 417 3 530 13 530
6 0 167 11 357 25 1840 134 3411 290 4530 451 242 34 802 127 870 143 19 5 41
9 48 10 9 1 12 -160 10 -776z m-10208 -483 c144 -56 334 -187 416 -287 l35
-43 -93 45 c-51 25 -138 57 -193 71 -88 22 -120 26 -265 26 -145 0 -177 -4
-265 -26 -55 -14 -142 -46 -193 -71 l-93 -45 36 45 c88 107 267 228 430 291
78 30 91 30 185 -6z m-2725 -43 c93 -46 172 -99 235 -157 l45 -41 -45 29
c-179 114 -408 120 -663 16 -33 -13 -62 -22 -64 -20 -6 5 142 98 264 166 75
42 114 58 128 54 11 -4 56 -25 100 -47z m-1240 -102 c33 -23 71 -55 84 -69
l24 -26 -54 0 c-30 0 -86 9 -124 20 -38 11 -80 20 -92 20 -22 0 -23 4 -23 84
l0 85 62 -35 c34 -20 90 -55 123 -79z m2533 73 l75 -43 -64 -7 c-35 -4 -104
-5 -152 -1 l-89 6 74 43 c40 24 75 43 77 44 3 0 38 -19 79 -42z m11640 -1983
c-2 -1 -1254 -25 -2783 -53 -1529 -29 -2840 -55 -2912 -58 l-133 -6 0 586 0
586 173 0 c556 1 1820 27 2617 55 886 31 2407 106 2995 147 l40 3 3 -629 c1
-346 1 -630 0 -631z m-14078 1245 c80 0 84 -5 60 -74 -78 -227 -65 -541 30
-733 45 -92 46 -95 28 -300 l-12 -143 -193 0 -193 0 0 613 0 613 33 17 c25 14
49 16 112 12 44 -3 105 -5 135 -5z m580 -37 c-1 -15 -27 -43 -33 -36 -15 15
-6 43 13 43 11 0 20 -3 20 -7z m878 -47 c1 -2 -4 -32 -13 -67 -26 -109 -36
-256 -25 -364 14 -131 33 -204 82 -303 l40 -82 -11 -148 c-7 -81 -15 -167 -18
-191 l-6 -44 -256 7 c-141 3 -393 9 -561 12 l-305 7 15 176 c14 164 17 178 42
211 67 88 123 257 135 408 l6 83 54 47 c57 50 220 162 235 162 14 0 141 -168
183 -243 32 -57 46 -73 67 -75 14 -2 32 4 41 12 32 33 47 301 21 385 l-7 24
139 -7 c76 -4 140 -9 142 -10z m607 -26 l60 0 1 -148 c0 -101 5 -159 15 -187
13 -36 17 -40 49 -40 32 0 37 4 76 75 24 41 56 90 72 109 l28 34 50 -76 c27
-42 58 -91 69 -109 26 -42 67 -50 88 -16 22 33 41 190 33 270 l-6 68 81 0 c70
0 80 -2 75 -16 -17 -45 -26 -207 -17 -305 17 -177 59 -309 133 -415 33 -50 34
-52 46 -219 8 -93 16 -182 19 -198 l6 -30 -124 6 c-68 4 -328 10 -578 13
l-453 7 6 56 c3 31 11 117 17 191 8 104 15 140 28 155 47 52 98 167 126 285
31 129 29 405 -2 488 -5 12 -1 14 18 9 13 -4 51 -7 84 -7z m1265 -52 c-1 -7
-7 -35 -14 -63 l-13 -49 -7 39 c-4 22 -10 50 -13 63 -4 18 -1 22 21 22 14 0
26 -6 26 -12z m590 -46 c94 -60 213 -157 263 -215 42 -50 48 -62 57 -128 19
-133 64 -271 105 -319 12 -14 5 -158 -21 -397 l-6 -63 -182 1 c-253 0 -906 16
-911 21 -6 5 -22 159 -33 307 l-9 114 32 53 c37 61 71 175 84 282 8 64 14 78
51 122 56 67 125 125 245 205 l100 66 85 -7 c73 -6 92 -11 140 -42z m326 23
c3 -8 2 -31 -3 -52 l-8 -36 -11 51 c-9 42 -8 52 3 52 8 0 16 -7 19 -15z
m-4219 -1639 c1 -1 -2 -74 -7 -161 -5 -88 -10 -276 -10 -417 l0 -258 -145 0
-145 0 0 425 0 424 153 -6 c83 -3 153 -6 154 -7z m14053 -411 l0 -425 -2915 0
-2915 0 0 370 0 370 193 1 c143 0 5306 100 5590 108 l47 1 0 -425z m-13058
397 c218 -4 399 -10 401 -12 3 -3 2 -186 -1 -407 l-5 -403 -565 0 -565 0 6
363 c4 199 10 387 13 417 l6 55 157 -3 c86 -1 335 -6 553 -10z m1595 -31 c210
-4 385 -10 389 -14 9 -9 23 -354 23 -589 l1 -188 -666 0 -667 0 5 394 c3 216
8 399 12 405 6 8 75 10 264 5 141 -3 429 -9 639 -13z m1376 -27 c258 -6 259
-6 253 -28 -3 -11 -9 -182 -12 -378 l-7 -358 -457 0 -457 0 -6 344 c-4 190
-10 365 -14 391 l-6 46 224 -5 c123 -3 340 -9 482 -12z m1435 -24 l132 0 0
-370 0 -370 -527 0 -526 0 7 345 c3 190 9 359 13 377 l6 31 381 -6 c210 -4
441 -7 514 -7z m-3968 -2520 l0 -280 -565 0 -565 0 0 280 0 280 565 0 565 0 0
-280z m1530 0 l0 -280 -625 0 -625 0 0 280 0 280 625 0 625 0 0 -280z m1280 0
l0 -280 -500 0 -500 0 0 280 0 280 500 0 500 0 0 -280z"/>
</g>
</svg>
